<svg width="72" height="95" viewBox="0 0 72 95" fill="none" xmlns="http://www.w3.org/2000/svg">
<path d="M18.6875 65.7188C13.5417 64.2396 9.79167 62.4271 7.4375 60.2812C5.10417 58.1146 3.9375 55.4479 3.9375 52.2812C3.9375 48.6979 5.36458 45.7396 8.21875 43.4062C11.0938 41.0521 14.8229 39.875 19.4062 39.875C22.5312 39.875 25.3125 40.4792 27.75 41.6875C30.2083 42.8958 32.1042 44.5625 33.4375 46.6875C34.7917 48.8125 35.4688 51.1354 35.4688 53.6562H29.4375C29.4375 50.9062 28.5625 48.75 26.8125 47.1875C25.0625 45.6042 22.5938 44.8125 19.4062 44.8125C16.4479 44.8125 14.1354 45.4688 12.4688 46.7812C10.8229 48.0729 10 49.875 10 52.1875C10 54.0417 10.7812 55.6146 12.3438 56.9062C13.9271 58.1771 16.6042 59.3438 20.375 60.4062C24.1667 61.4688 27.125 62.6458 29.25 63.9375C31.3958 65.2083 32.9792 66.6979 34 68.4062C35.0417 70.1146 35.5625 72.125 35.5625 74.4375C35.5625 78.125 34.125 81.0833 31.25 83.3125C28.375 85.5208 24.5312 86.625 19.7188 86.625C16.5938 86.625 13.6771 86.0312 10.9688 84.8438C8.26042 83.6354 6.16667 81.9896 4.6875 79.9062C3.22917 77.8229 2.5 75.4583 2.5 72.8125H8.53125C8.53125 75.5625 9.54167 77.7396 11.5625 79.3438C13.6042 80.9271 16.3229 81.7188 19.7188 81.7188C22.8854 81.7188 25.3125 81.0729 27 79.7812C28.6875 78.4896 29.5312 76.7292 29.5312 74.5C29.5312 72.2708 28.75 70.5521 27.1875 69.3438C25.625 68.1146 22.7917 66.9062 18.6875 65.7188Z" fill="#FF7A00"/>
<path fill-rule="evenodd" clip-rule="evenodd" d="M57 35C57 23.9543 48.0457 15 37 15C25.9543 15 17 23.9543 17 35H57Z" fill="#F3C111"/>
<path d="M38.2812 93V47.5H53.1562C58.0938 47.5 61.8021 48.5208 64.2812 50.5625C66.7812 52.6042 68.0312 55.625 68.0312 59.625C68.0312 61.75 67.4271 63.6354 66.2188 65.2812C65.0104 66.9062 63.3646 68.1667 61.2812 69.0625C63.7396 69.75 65.6771 71.0625 67.0938 73C68.5312 74.9167 69.25 77.2083 69.25 79.875C69.25 83.9583 67.9271 87.1667 65.2812 89.5C62.6354 91.8333 58.8958 93 54.0625 93H38.2812ZM44.2812 71.7188V88.0938H54.1875C56.9792 88.0938 59.1771 87.375 60.7812 85.9375C62.4062 84.4792 63.2188 82.4792 63.2188 79.9375C63.2188 74.4583 60.2396 71.7188 54.2812 71.7188H44.2812ZM44.2812 66.9062H53.3438C55.9688 66.9062 58.0625 66.25 59.625 64.9375C61.2083 63.625 62 61.8438 62 59.5938C62 57.0938 61.2708 55.2812 59.8125 54.1562C58.3542 53.0104 56.1354 52.4375 53.1562 52.4375H44.2812V66.9062Z" fill="#1C3AA3"/>
<rect x="62" y="33" width="10" height="2.5" fill="#D99E07"/>
<rect x="2" y="33" width="10" height="2.5" fill="#D99E07"/>
<rect x="22.0711" y="14.8388" width="10" height="2.5" transform="rotate(-135 22.0711 14.8388)" fill="#D99E07"/>
<rect x="14.2388" y="24.1365" width="10" height="2.5" transform="rotate(-157.5 14.2388 24.1365)" fill="#D99E07"/>
<rect x="59" y="21.8268" width="10" height="2.5" transform="rotate(-22.5 59 21.8268)" fill="#D99E07"/>
<rect x="50" y="13.0711" width="10" height="2.5" transform="rotate(-45 50 13.0711)" fill="#D99E07"/>
<rect x="34" y="10" width="10" height="2.5" transform="rotate(-90 34 10)" fill="#D99E07"/>
</svg>
